<mxfile host="app.diagrams.net" modified="2023-12-22T02:48:20.052Z" agent="Mozilla/5.0 (Windows NT 10.0; Win64; x64) AppleWebKit/537.36 (KHTML, like Gecko) Chrome/120.0.0.0 Safari/537.36" etag="rx7ZktRtZy-bONVnx4wZ" version="22.1.11" type="github">
  <diagram name="PÃ¡gina-1" id="_gbSHQ8x5TelWGNGBJQi">
    <mxGraphModel dx="2199" dy="786" grid="1" gridSize="10" guides="1" tooltips="1" connect="1" arrows="1" fold="1" page="1" pageScale="1" pageWidth="827" pageHeight="1169" math="0" shadow="0">
      <root>
        <mxCell id="0" />
        <mxCell id="1" parent="0" />
        <mxCell id="vDU0Y8dokldhxelXJ6Cu-15" style="edgeStyle=orthogonalEdgeStyle;rounded=0;orthogonalLoop=1;jettySize=auto;html=1;entryX=0;entryY=0.5;entryDx=0;entryDy=0;" edge="1" parent="1" source="vDU0Y8dokldhxelXJ6Cu-1" target="vDU0Y8dokldhxelXJ6Cu-14">
          <mxGeometry relative="1" as="geometry" />
        </mxCell>
        <mxCell id="vDU0Y8dokldhxelXJ6Cu-1" value="provedor" style="whiteSpace=wrap;html=1;align=center;" vertex="1" parent="1">
          <mxGeometry x="40" y="240" width="100" height="40" as="geometry" />
        </mxCell>
        <mxCell id="vDU0Y8dokldhxelXJ6Cu-12" style="edgeStyle=orthogonalEdgeStyle;rounded=0;orthogonalLoop=1;jettySize=auto;html=1;entryX=0;entryY=1;entryDx=0;entryDy=0;" edge="1" parent="1" source="vDU0Y8dokldhxelXJ6Cu-3" target="vDU0Y8dokldhxelXJ6Cu-1">
          <mxGeometry relative="1" as="geometry" />
        </mxCell>
        <mxCell id="vDU0Y8dokldhxelXJ6Cu-3" value="Provincia" style="ellipse;whiteSpace=wrap;html=1;align=center;" vertex="1" parent="1">
          <mxGeometry x="-150" y="310" width="100" height="40" as="geometry" />
        </mxCell>
        <mxCell id="vDU0Y8dokldhxelXJ6Cu-11" style="edgeStyle=orthogonalEdgeStyle;rounded=0;orthogonalLoop=1;jettySize=auto;html=1;entryX=0;entryY=0.25;entryDx=0;entryDy=0;" edge="1" parent="1" source="vDU0Y8dokldhxelXJ6Cu-4" target="vDU0Y8dokldhxelXJ6Cu-1">
          <mxGeometry relative="1" as="geometry" />
        </mxCell>
        <mxCell id="vDU0Y8dokldhxelXJ6Cu-4" value="Ciudad" style="ellipse;whiteSpace=wrap;html=1;align=center;" vertex="1" parent="1">
          <mxGeometry x="-150" y="250" width="100" height="40" as="geometry" />
        </mxCell>
        <mxCell id="vDU0Y8dokldhxelXJ6Cu-10" style="edgeStyle=orthogonalEdgeStyle;rounded=0;orthogonalLoop=1;jettySize=auto;html=1;entryX=0;entryY=0;entryDx=0;entryDy=0;" edge="1" parent="1" source="vDU0Y8dokldhxelXJ6Cu-5" target="vDU0Y8dokldhxelXJ6Cu-1">
          <mxGeometry relative="1" as="geometry" />
        </mxCell>
        <mxCell id="vDU0Y8dokldhxelXJ6Cu-5" value="Direccion" style="ellipse;whiteSpace=wrap;html=1;align=center;" vertex="1" parent="1">
          <mxGeometry x="-150" y="200" width="100" height="40" as="geometry" />
        </mxCell>
        <mxCell id="vDU0Y8dokldhxelXJ6Cu-9" style="edgeStyle=orthogonalEdgeStyle;rounded=0;orthogonalLoop=1;jettySize=auto;html=1;entryX=0.25;entryY=0;entryDx=0;entryDy=0;exitX=0.5;exitY=1;exitDx=0;exitDy=0;" edge="1" parent="1" source="vDU0Y8dokldhxelXJ6Cu-6" target="vDU0Y8dokldhxelXJ6Cu-1">
          <mxGeometry relative="1" as="geometry" />
        </mxCell>
        <mxCell id="vDU0Y8dokldhxelXJ6Cu-6" value="Nombre" style="ellipse;whiteSpace=wrap;html=1;align=center;" vertex="1" parent="1">
          <mxGeometry x="-80" y="120" width="100" height="40" as="geometry" />
        </mxCell>
        <mxCell id="vDU0Y8dokldhxelXJ6Cu-8" style="edgeStyle=orthogonalEdgeStyle;rounded=0;orthogonalLoop=1;jettySize=auto;html=1;entryX=0.5;entryY=0;entryDx=0;entryDy=0;" edge="1" parent="1" source="vDU0Y8dokldhxelXJ6Cu-7" target="vDU0Y8dokldhxelXJ6Cu-1">
          <mxGeometry relative="1" as="geometry" />
        </mxCell>
        <mxCell id="vDU0Y8dokldhxelXJ6Cu-7" value="Codigo Provedor" style="ellipse;whiteSpace=wrap;html=1;align=center;fontStyle=4;" vertex="1" parent="1">
          <mxGeometry x="40" y="120" width="100" height="40" as="geometry" />
        </mxCell>
        <mxCell id="vDU0Y8dokldhxelXJ6Cu-13" value="piezas" style="whiteSpace=wrap;html=1;align=center;" vertex="1" parent="1">
          <mxGeometry x="510" y="240" width="100" height="40" as="geometry" />
        </mxCell>
        <mxCell id="vDU0Y8dokldhxelXJ6Cu-16" style="edgeStyle=orthogonalEdgeStyle;rounded=0;orthogonalLoop=1;jettySize=auto;html=1;entryX=0;entryY=0.5;entryDx=0;entryDy=0;" edge="1" parent="1" source="vDU0Y8dokldhxelXJ6Cu-14" target="vDU0Y8dokldhxelXJ6Cu-13">
          <mxGeometry relative="1" as="geometry" />
        </mxCell>
        <mxCell id="vDU0Y8dokldhxelXJ6Cu-14" value="Sumistra" style="shape=rhombus;perimeter=rhombusPerimeter;whiteSpace=wrap;html=1;align=center;" vertex="1" parent="1">
          <mxGeometry x="250" y="230" width="120" height="60" as="geometry" />
        </mxCell>
      </root>
    </mxGraphModel>
  </diagram>
</mxfile>
